<?xml version="1.0" encoding="iso-8859-1"?>
<!-- Generator: Adobe Illustrator 16.0.0, SVG Export Plug-In . SVG Version: 6.00 Build 0)  -->
<!DOCTYPE svg PUBLIC "-//W3C//DTD SVG 1.1//EN" "http://www.w3.org/Graphics/SVG/1.1/DTD/svg11.dtd">
<svg version="1.1" id="Capa_1" xmlns="http://www.w3.org/2000/svg" xmlns:xlink="http://www.w3.org/1999/xlink" x="0px" y="0px"
	 width="53.024px" height="53.024px" viewBox="0 0 53.024 53.024" style="enable-background:new 0 0 53.024 53.024;"
	 xml:space="preserve">
<g>
	<g>
		<path style="fill:#fff;" d="M31.814,0H21.21C9.543,0,0,9.543,0,21.21v10.605c0,11.666,9.543,21.209,21.21,21.209h10.604
			c11.666,0,21.21-9.543,21.21-21.209V21.21C53.024,9.543,43.48,0,31.814,0z M41.508,37.759l-3.749,3.749L26.512,30.261
			L15.26,41.508l-3.749-3.749l11.252-11.247L11.511,15.26l3.749-3.749l11.251,11.252l11.247-11.252l3.749,3.749L30.261,26.512
			L41.508,37.759z"/>
	</g>
</g>
<g>
</g>
<g>
</g>
<g>
</g>
<g>
</g>
<g>
</g>
<g>
</g>
<g>
</g>
<g>
</g>
<g>
</g>
<g>
</g>
<g>
</g>
<g>
</g>
<g>
</g>
<g>
</g>
<g>
</g>
</svg>
